<?xml version="1.0" encoding="utf-8"?>
<!-- Generator: Adobe Illustrator 27.3.1, SVG Export Plug-In . SVG Version: 6.00 Build 0)  -->
<svg version="1.1" id="Capa_1" xmlns="http://www.w3.org/2000/svg" xmlns:xlink="http://www.w3.org/1999/xlink" x="0px" y="0px"
	 viewBox="0 0 355 138" style="enable-background:new 0 0 355 138;" xml:space="preserve">
<style type="text/css">
	.st0{fill:#495456;}
	.st1{fill:#6B7273;}
	.st2{fill:#92C01F;}
	.st3{fill:#383838;}
	.st4{fill:#83BB26;}
	.st5{fill:#41AC50;}
	.st6{fill:#00983F;}
</style>
<g>
	<path class="st0" d="M291.43,77.76c-4.9,4.9-9.8,8.76-10.58,8.76c-2.61,0-1.3-6.98,2.35-15.22c3.08-6.46,3.08-6.46,0.99-7.51
		c-2.81-1.56-4.9,0-7.71,6.72c-2.87,5.68-3.39,15.74-1.3,17.83c1.82,1.77,8.03,1.51,11.62-0.78c2.3-1.45,6.76-6.34,10.14-10.61
		c0.46-1.82,0.97-3.68,1.55-5.55C296.74,72.78,294.29,75,291.43,77.76z"/>
	<path class="st0" d="M290.39,56.8c0.07-0.14,0.36-0.3,0.83-0.46c1.25-1.92,1.17-2.2-0.04-3.66c-1.25-1.3-2.03-1.3-3.34-0.26
		c-2.35,1.82-3.86,4.9-3.13,6.2c1.2,1.64,3.74,1.14,5.72-1.2C290.27,57.24,290.25,57.03,290.39,56.8z"/>
	<path class="st0" d="M310.56,56.8h7.19c4.17,0,7.25-0.52,7.25-1.04c0-1.3-2.81-2.03-7.77-2.03c-2.55,0-4.64-0.52-4.64-1.04
		c0-0.52,1.56-3.13,3.65-5.94c3.08-4.69,3.34-5.42,1.77-6.72c-2.03-1.82-4.38,0-8.24,6.46c-4.69,7.98-4.69,7.98-12.15,8.76
		c-2.67,0.19-5.16,0.66-6.42,1.1c-0.09,0.15-0.2,0.3-0.31,0.46c-0.16,0.22-0.32,0.43-0.49,0.62c0.72,0.9,4.46,1.33,8.77,0.68
		c4.12-0.52,4.38-0.52,3.6,1.3c-1.65,4.02-3.11,8.05-4.31,11.99c1.56-1.23,2.56-1.78,2.8-1.41c0.32,0.58-1.67,3.57-4.35,6.96
		c-0.55,2.2-1.02,4.35-1.38,6.44c-2.09,11.88-2.09,12.41,1.56,15.79c1.56,1.82,3.86,3.08,5.16,3.08c2.61,0,7.51-5.94,13.71-16.26
		c5.94-9.8,6.46-11.1,4.64-11.88c-1.04-0.26-3.13,2.35-6.46,7.51c-2.61,4.64-6.72,10.32-9.07,12.93c-3.6,4.12-4.38,4.64-5.16,3.08
		c-1.77-3.6,3.65-26.85,8.81-36.96L310.56,56.8z"/>
	<path class="st0" d="M301.28,69.99c-0.25-0.37-1.25,0.18-2.8,1.41c-0.57,1.88-1.09,3.73-1.55,5.55
		C299.61,73.56,301.61,70.57,301.28,69.99z"/>
	<path class="st0" d="M291.21,56.34c-0.46,0.16-0.76,0.32-0.83,0.46c-0.13,0.22-0.11,0.43,0.04,0.62c0.17-0.2,0.33-0.4,0.49-0.62
		C291.02,56.64,291.12,56.49,291.21,56.34z"/>
	<g>
		<path class="st1" d="M81.72,57.53c-2.71,0-5.2,0.72-7.48,2.17c-2.28,1.44-3.92,3.48-4.91,6.09c-0.9-2.8-2.49-4.88-4.77-6.23
			c-2.28-1.35-4.82-2.03-7.62-2.03c-5.1,0-8.74,2.08-10.9,6.23l-0.07-5.55h-3.11v20.14c1.03,0.13,2.13,0.27,3.32,0.41v-6.94
			c0-3.25,0.99-5.91,2.98-7.99c1.99-2.08,4.56-3.11,7.72-3.11c3.16,0,5.74,1.04,7.75,3.11c2.01,2.08,3.01,4.74,3.01,7.99v8.7
			c1.08,0.06,2.18,0.12,3.32,0.17v-8.87c0-3.25,1-5.92,3.01-8.02c2.01-2.1,4.59-3.15,7.75-3.15c3.16,0,5.73,1.03,7.72,3.08
			c1.99,2.05,2.98,4.68,2.98,7.89v9.75c1.09,0.02,2.2,0.03,3.32,0.04v-9.79c0-4.15-1.31-7.54-3.93-10.16
			C89.19,58.84,85.83,57.53,81.72,57.53z"/>
		<path class="st1" d="M119.37,57.67c-4.74,0-8.76,1.64-12.05,4.91c-3.3,3.27-4.94,7.39-4.94,12.36c0,2.39,0.35,4.57,1.04,6.53
			c1.19,0,2.39,0,3.61,0c-0.69-1.48-1.11-3.13-1.26-4.97h30.13c0.59-6.14-0.73-10.81-3.96-14.02
			C128.71,59.27,124.52,57.67,119.37,57.67z M105.76,73.58c0.36-3.97,1.83-7.11,4.4-9.41c2.57-2.3,5.64-3.45,9.21-3.45
			c4.11,0,7.38,1.13,9.82,3.39c2.44,2.26,3.68,5.42,3.72,9.48H105.76z"/>
		<path class="st1" d="M150.45,59.43c-2.03,1.04-3.54,2.62-4.54,4.74l-0.14-5.96h-3.11v22.58c1.1-0.04,2.2-0.08,3.32-0.12v-8.52
			c0-3.07,1.06-5.69,3.18-7.85c2.12-2.17,4.74-3.27,7.86-3.32c2.12,0,4.02,0.52,5.69,1.56l1.49-2.71c-2.26-1.4-4.65-2.05-7.18-1.96
			C154.67,57.87,152.48,58.39,150.45,59.43z"/>
		<path class="st1" d="M169.38,62.41c-3.27,3.16-4.91,7.34-4.91,12.53c0,1.75,0.2,3.39,0.58,4.92c1.09-0.05,2.2-0.11,3.31-0.17
			c-0.43-1.44-0.64-3.02-0.64-4.75c0-4.33,1.34-7.78,4.03-10.33c2.69-2.55,5.99-3.83,9.92-3.83c4.06,0,7.43,1.33,10.09,4l2.1-2.1
			c-3.43-3.34-7.49-5.01-12.19-5.01C176.75,57.67,172.65,59.25,169.38,62.41z"/>
		<path class="st2" d="M229.82,58.21h-1.9v5.01v2.31c-0.98-1.83-2.25-3.33-3.8-4.52c-0.6-0.46-1.23-0.87-1.92-1.24
			c-2.46-1.31-5.11-1.96-7.96-1.96c-4.01,0-7.48,1.13-10.43,3.38c-0.57,0.44-1.13,0.91-1.66,1.43c-3.27,3.21-4.91,7.31-4.91,12.32
			c0,1.04,0.07,2.03,0.22,2.99c1.1-0.08,2.21-0.15,3.32-0.23c-0.14-0.88-0.22-1.8-0.22-2.76c0-4.11,1.31-7.46,3.93-10.06
			c1.71-1.69,3.69-2.83,5.93-3.42c1.2-0.31,2.47-0.47,3.82-0.47c1.08,0,2.1,0.1,3.08,0.28c1.35,0.25,2.61,0.68,3.76,1.28
			c1.99,1.04,3.5,2.37,4.54,4c0.2,0.32,0.39,0.64,0.57,0.97c0.75,1.37,1.33,2.86,1.73,4.48c0.3,1.2,0.41,2.4,0.35,3.6
			c0.51-0.04,1.03-0.09,1.54-0.13c0.47-0.04,0.95-0.08,1.42-0.12V58.21H229.82z"/>
	</g>
	<g>
		<path class="st3" d="M67.64,91.66h3.32V80.69c-1.13-0.06-2.24-0.11-3.32-0.17V91.66z"/>
		<path class="st3" d="M42.85,91.66h3.32v-12.9c-1.18-0.14-2.29-0.27-3.32-0.41V91.66z"/>
		<path class="st3" d="M92.42,91.66h3.32V81.41c-1.12-0.01-2.23-0.03-3.32-0.04V91.66z"/>
		<path class="st3" d="M126.21,87.6c-2.26,0.9-4.54,1.35-6.84,1.35c-3.57,0-6.65-1.13-9.24-3.39c-1.34-1.16-2.37-2.53-3.1-4.1
			c-1.22,0-2.43,0-3.61,0c0.81,2.29,2.08,4.3,3.84,6c3.25,3.16,7.29,4.74,12.12,4.74c2.8,0,5.51-0.55,8.13-1.66
			c2.62-1.11,4.72-2.7,6.3-4.77l-2.37-1.9C130.21,85.45,128.47,86.69,126.21,87.6z"/>
		<path class="st3" d="M142.67,91.66h3.32V80.67c-1.12,0.04-2.22,0.08-3.32,0.12V91.66z"/>
		<path class="st3" d="M181.67,89.09c-3.93,0-7.23-1.28-9.92-3.83c-1.62-1.54-2.74-3.4-3.39-5.58c-1.11,0.06-2.22,0.11-3.31,0.17
			c0.75,2.95,2.21,5.48,4.39,7.58c3.32,3.18,7.39,4.77,12.22,4.77c4.79,0,8.85-1.67,12.19-5.01l-2.23-2.23
			C188.87,87.71,185.55,89.09,181.67,89.09z"/>
		<path class="st4" d="M229.82,75.46c-0.52,0.04-1.03,0.09-1.54,0.13c-0.04,0.8-0.15,1.6-0.35,2.39c-0.1,0.41-0.39,1.36-0.44,1.5
			c-0.47,1.41-1.09,2.71-1.86,3.92c-1.04,1.63-2.55,2.96-4.54,4c-1.99,1.04-4.27,1.56-6.84,1.56c-3.88,0-7.13-1.31-9.75-3.93
			c-1.96-1.96-3.19-4.35-3.68-7.15c-0.02-0.1-0.11-0.17-0.21-0.17c-0.98,0.07-1.95,0.14-2.92,0.2c-0.12,0.01-0.2,0.12-0.19,0.23
			c0.57,3.59,2.13,6.65,4.69,9.18c1.74,1.72,3.68,2.98,5.83,3.79c0.83,0.31,1.76,0.3,2.58-0.05c0.97-0.41,2.01-0.8,3.59-0.8
			c1.48,0,2.46,0.37,3.37,0.75c0.94,0.4,2.01,0.42,2.95,0.03c2.81-1.13,5.16-3.11,7.05-5.94c0.11-0.16,0.36,0.8,0.36,1l0.01,0.01
			v5.53h1.9h1.42V75.34C230.76,75.38,230.29,75.42,229.82,75.46z"/>
	</g>
	<g>
		<path class="st5" d="M216.69,54.18c0.62,0.09,1.29,0.15,2.02,0.17C218.03,54.4,217.36,54.33,216.69,54.18z"/>
		<path class="st5" d="M216.27,47.24c0.76,0.88,1.47,2.03,1.93,3.29c0.45,1.21,0.67,2.52,0.5,3.81l-9.19-10.57
			C211.82,43.87,214.61,45.3,216.27,47.24z"/>
		<path class="st6" d="M211.9,51.09c-0.15-0.18-0.29-0.37-0.43-0.56c-1.36-1.88-2.24-4.32-1.95-6.76l9.19,10.57
			c-0.73-0.02-1.4-0.07-2.02-0.17C214.82,53.73,213.08,52.53,211.9,51.09z"/>
	</g>
	<g>
		<path class="st0" d="M298.07,25.01c-2.81-1.56-9.02-1.3-17.83,1.04c-4.38,0.99-9.28,1.77-11.1,1.25c-2.35-0.26-3.13,0-3.86,1.56
			c-0.78,1.3-4.17,3.6-8.03,5.16c-9.26,4.52-22.45,13.31-27.44,18.15c-1.28,1.24-2.02,2.22-2.02,2.8c0,0.9,0.81,1.16,2.02,0.89
			c1.5-0.34,3.61-1.5,5.49-3.23c3.86-3.6,22.47-15.22,24.29-15.22c0.47,0-0.52,4.9-2.35,11.1l-3.34,11.1l-7.25,2.29
			c-4.17,1.3-7.51,2.87-7.51,3.39c0,1.3,3.13,2.55,7.77,3.6l2.81,0.52l-0.52,8.81c-0.52,4.9-0.26,9.8,0.26,11.36
			c0.78,1.56,1.82,2.55,3.13,2.55c2.03,0,2.29-0.52,1.51-2.55c-0.73-3.13,4.43-26.64,6.2-27.68c0.52-0.21,6.2-2.03,12.67-3.6
			c9.33-2.29,11.36-3.08,10.37-4.12c-1.04-1.04-3.39-0.78-11.89,1.04c-7.25,1.77-10.63,2.03-10.63,1.25c0-2.03,6.2-19.34,7.77-21.69
			c1.82-3.08,16.52-7.25,25.07-7.25C300.42,27.56,301.67,26.78,298.07,25.01z M252.14,67.21c-0.37,0.14-1.02-0.02-2.12-0.44
			c-0.31-0.12-0.66-0.26-1.05-0.43c-0.33-0.1-0.6-0.19-0.81-0.27c-0.07-0.03-0.13-0.05-0.19-0.08c-0.17-0.08-0.27-0.15-0.31-0.23
			c-0.03-0.05-0.03-0.1,0-0.15c0.04-0.07,0.15-0.15,0.31-0.23c0.06-0.03,0.12-0.05,0.19-0.08c0.21-0.08,0.48-0.17,0.81-0.27
			c0.16-0.07,0.32-0.13,0.47-0.18c0.75-0.28,1.36-0.46,1.83-0.51c0.09-0.01,0.18-0.01,0.27-0.01c0.08,0,0.16,0.01,0.24,0.02
			c0.22,0.04,0.39,0.12,0.53,0.27c0.09,0.1,0.16,0.21,0.21,0.36c0.08,0.22,0.11,0.5,0.11,0.84
			C252.61,66.62,252.51,67.07,252.14,67.21z"/>
	</g>
</g>
</svg>
